<svg width="89" height="90" viewBox="0 0 89 90" fill="none" xmlns="http://www.w3.org/2000/svg">
<circle opacity="0.1" cx="44.426" cy="45.1106" r="41.5012" transform="rotate(0.237411 44.426 45.1106)" fill="#1F1D2B" stroke="white" stroke-width="5.4132"/>
<circle opacity="0.05" cx="44.426" cy="45.1108" r="36.088" transform="rotate(0.237411 44.426 45.1108)" fill="#1F1D2B" stroke="white" stroke-width="5.4132"/>
<circle opacity="0.1" cx="44.4259" cy="45.1105" r="30.6748" transform="rotate(0.237411 44.4259 45.1105)" fill="#1F1D2B" stroke="white" stroke-width="5.4132"/>
<circle opacity="0.05" cx="44.4257" cy="45.1107" r="25.2616" transform="rotate(0.237411 44.4257 45.1107)" fill="#1F1D2B" stroke="white" stroke-width="5.4132"/>
<path d="M2.92517 44.9387C2.8302 67.859 21.3338 86.5165 44.2541 86.6115C67.1744 86.7065 85.8319 68.2029 85.9269 45.2826C86.0219 22.3623 67.5183 3.70476 44.598 3.60978" stroke="#65B0F6" stroke-width="5.4132" stroke-linecap="round"/>
<path d="M44.2764 81.1983C64.2071 81.2809 80.4311 65.1908 80.5137 45.2601C80.5963 25.3295 64.5062 9.1055 44.5755 9.02292" stroke="#FFB572" stroke-width="5.4132" stroke-linecap="round"/>
<path d="M44.7611 14.1768C50.1102 14.199 55.3605 15.6195 59.991 18.2975C64.6215 20.9754 68.4712 24.8177 71.1581 29.443C73.845 34.0683 75.2757 39.3159 75.3083 44.6649C75.3408 50.0139 73.974 55.2784 71.3435 59.9361C68.713 64.5937 64.9102 68.4825 60.3126 71.2166C55.715 73.9506 50.4824 75.4349 45.134 75.5221C39.7856 75.6093 34.5074 74.2963 29.8231 71.7136C25.1388 69.1308 21.2114 65.3681 18.4304 60.7986" stroke="#FF7CA3" stroke-width="5.4132" stroke-linecap="round"/>
</svg>
