<svg width="5" height="6" viewBox="0 0 5 6" fill="none" xmlns="http://www.w3.org/2000/svg">
<path d="M2.22891 0.68784C2.34455 0.688319 2.43977 0.773393 2.45444 0.883318L2.4564 0.913869L2.43988 4.87059L3.89044 3.44708C3.97982 3.35936 4.12445 3.35965 4.21348 3.44773C4.29442 3.52781 4.30155 3.65287 4.23502 3.74085L4.21286 3.76605L2.37065 5.57411L2.36582 5.57854C2.36087 5.58313 2.35571 5.58751 2.35036 5.59165L2.37065 5.57411C2.36178 5.58282 2.35236 5.59066 2.3425 5.59764C2.33631 5.60185 2.32988 5.60594 2.32325 5.60971C2.30848 5.61823 2.29303 5.62481 2.27716 5.62965C2.27156 5.63128 2.26585 5.63279 2.26005 5.63409C2.25563 5.63514 2.25113 5.636 2.24662 5.63673C2.24172 5.63746 2.23683 5.63809 2.23189 5.63857C2.22693 5.63911 2.22186 5.63944 2.21679 5.6396C2.21398 5.63962 2.21119 5.63966 2.20839 5.63965L2.20081 5.63955C2.19518 5.63934 2.18956 5.63893 2.18396 5.63831L2.20839 5.63965C2.19535 5.63959 2.18256 5.63846 2.17013 5.63634C2.16446 5.63539 2.15877 5.6342 2.15312 5.63279C2.14864 5.63166 2.14423 5.63042 2.13988 5.62905C2.13472 5.62744 2.12952 5.6256 2.12437 5.62357C2.11906 5.62146 2.11387 5.61918 2.10879 5.61672C2.1049 5.61486 2.10089 5.61277 2.09693 5.61056C2.08951 5.6064 2.08254 5.60199 2.07585 5.59723C2.0748 5.59648 2.07365 5.59564 2.0725 5.59479C2.06233 5.58724 2.05337 5.57942 2.04508 5.57097L0.219475 3.74952C0.130821 3.66107 0.131711 3.51855 0.221463 3.43121C0.303055 3.3518 0.429999 3.34532 0.519013 3.41125L0.544496 3.4332L1.98294 4.86842L1.99956 0.911976C2.00007 0.787666 2.10276 0.687318 2.22891 0.68784Z" fill="#FF7CA3"/>
</svg>
