<svg  viewBox="-1.5 -0.95 7 10" fill="currentColor" xmlns="http://www.w3.org/2000/svg">
<path d="M2.04136 5.208C1.92572 5.20752 1.8305 5.12245 1.81583 5.01253L1.81387
       4.98197L1.83039 1.02526L0.37983 2.44876C0.290454 2.53648 0.145824
       2.53619 0.056792 2.44811C-0.0241466 2.36804 -0.0312742 2.24298 0.0352489
       2.15499L0.0574152 2.12979L1.89962 0.321733L1.90445 0.317303C1.9094
       0.312713 1.91456 0.308338 1.91991 0.304195L1.89962 0.321733C1.90849
       0.313022 1.91791 0.305179 1.92777 0.298204C1.93396 0.293989 1.94039
       0.2899 1.94702 0.28613C1.96179 0.277614 1.97724 0.271031 1.99311
       0.266193C1.99871 0.264564 2.00442 0.263053 2.01022 0.261758C2.01464
       0.260704 2.01914 0.25984 2.02366 0.259111C2.02855 0.258384 2.03344
       0.257752 2.03838 0.257275C2.04334 0.256732 2.04841 0.256407 2.05348
       0.256248C2.05629 0.256223 2.05908 0.256185 2.06188 0.256196L2.06946
       0.256295C2.07509 0.256504 2.08071 0.256917 2.08631 0.257534L2.06188
       0.256196C2.07492 0.25625 2.08771 0.257381 2.10015 0.259502C2.10581
       0.26045 2.1115 0.261644 2.11715 0.263055C2.12164 0.264185 2.12604
       0.265426 2.13039 0.266792C2.13555 0.268404 2.14076 0.270244 2.1459
       0.272275C2.15121 0.274384 2.1564 0.276663 2.16148 0.279122C2.16537
       0.280986 2.16938 0.28307 2.17334 0.28528C2.18077 0.289448 2.18773
       0.293857 2.19442 0.298614C2.19547 0.299362 2.19663 0.300201 2.19778
       0.301052C2.20794 0.308601 2.2169 0.316419 2.2252 0.324875L4.0508
       2.14633C4.13945 2.23478 4.13856 2.37729 4.04881 2.46464C3.96722 2.54404
       3.84027 2.55052 3.75126 2.48459L3.72578 2.46264L2.28733 1.02742L2.27072
       4.98387C2.2702 5.10818 2.16752 5.20853 2.04136 5.208Z" fill="currentColor"/>
</svg>
