<svg width="11" height="9" viewBox="0 0 11 9" fill="none" xmlns="http://www.w3.org/2000/svg">
<path fill-rule="evenodd" clip-rule="evenodd" d="M0.310481 2.98243C0.315607 1.74525 1.32269 0.746481 2.55987 0.751607L8.21908 0.775057C9.45625 0.780183 10.455 1.78727 10.4499 3.02444L10.4382 5.85405C10.433 7.09122 9.42596 8.08999 8.18879 8.08487L2.52958 8.06142C1.2924 8.05629 0.29363 7.04921 0.298756 5.81203L0.310481 2.98243ZM1.06036 2.63183L9.70295 2.66764C9.54607 1.99101 8.9409 1.48546 8.21614 1.48246L2.55693 1.45901C1.83218 1.456 1.22284 1.95652 1.06036 2.63183ZM9.74103 3.37521L1.01642 3.33906L1.00616 5.81496C1.00265 6.66145 1.68602 7.35051 2.53251 7.35402L8.19172 7.37747C9.0382 7.38097 9.72726 6.6976 9.73077 5.85112L9.74103 3.37521ZM5.95796 5.83548C5.95877 5.64014 6.11779 5.48244 6.31313 5.48325L8.19953 5.49106C8.39488 5.49187 8.55258 5.65089 8.55177 5.84623C8.55096 6.04157 8.39194 6.19927 8.1966 6.19847L6.3102 6.19065C6.11486 6.18984 5.95715 6.03083 5.95796 5.83548Z" fill="white"/>
</svg>
