<svg width="9" height="8" viewBox="0 0 9 8" fill="none" xmlns="http://www.w3.org/2000/svg">
<path d="M7.01287 4.63449C7.82845 4.63787 8.48874 5.29507 8.48541
       6.10013C8.48207 6.90473 7.81636 7.55689 7.00078 7.55351C6.1852 7.55013
       5.52491 6.89248 5.52825 6.08787C5.53158 5.28281 6.1973 4.63111 7.01287
       4.63449ZM7.01004 5.31906C6.57682 5.31727 6.22354 5.66312 6.22176
       6.09075C6.21999 6.51792 6.5704 6.86714 7.00362 6.86894C7.43683 6.87073
       7.79012 6.52443 7.79189 6.09725C7.79366 5.66962 7.44326 5.32086 7.01004
       5.31906ZM3.817 5.73835C4.00841 5.73915 4.16312 5.89313 4.16234
       6.08208C4.16156 6.27102 4.00557 6.42372 3.81416 6.42293L0.9712
       6.41115C0.779789 6.41035 0.625076 6.25636 0.625859 6.06742C0.626642
       5.87848 0.782626 5.72578 0.974037 5.72657L3.817 5.73835ZM2.12901
       0.0661853C2.94459 0.0695647 3.60488 0.727221 3.60154 1.53182C3.59821
       2.33643 2.93249 2.98859 2.11691 2.98521C1.3018 2.98183 0.641046 2.32417
       0.64438 1.51957C0.647714 0.714967 1.31389 0.0628078 2.12901
       0.0661853ZM2.12617 0.750759C1.69342 0.748966 1.33967 1.09527 1.3379
       1.52244C1.33613 1.94962 1.68699 2.29884 2.11975 2.30063C2.55297 2.30243
       2.90625 1.95612 2.90802 1.52895C2.90979 1.10178 2.55939 0.752554 2.12617
       0.750759ZM8.15905 1.20851C8.35046 1.2093 8.50517 1.36329 8.50439
       1.55223C8.50361 1.74117 8.34762 1.89387 8.15621 1.89308L5.31279
       1.8813C5.12138 1.8805 4.96667 1.72652 4.96745 1.53757C4.96823 1.34863
       5.12421 1.19593 5.31563 1.19672L8.15905 1.20851Z" fill="currentColor"/>
</svg>
