<svg width="4" height="6" viewBox="0.3 -0.5 4 6" fill="none" xmlns="http://www.w3.org/2000/svg">
<path d="M1.63551 1.57704C1.63667 1.29686 1.85292 1.12226 2.14556
       1.0896L2.14146 2.07793C2.1107 2.07165 2.08303 2.06229 2.05536
       2.05294C1.77556 1.95942 1.63459 1.79873 1.63551 1.57704ZM3.167
       3.50466C3.16575 3.80639 2.934 4.00556 2.60753 4.03192L2.61193
       2.9697C2.63345 2.97595 2.65498 2.98219 2.67344 2.98535C3.01788 3.08222
       3.16805 3.25219 3.167 3.50466ZM2.60931 5.08801L2.60785 4.69698C3.4518
       4.62042 3.98946 4.15773 3.99249 3.42495C3.99558 2.67985 3.49502 2.36373
       2.87671 2.22877L2.61523 2.17226L2.61968 1.09773C2.94583 1.15142 3.12646
       1.39848 3.13468 1.64484L3.92288 1.6481C3.91322 1.00764 3.41337 0.519092
       2.63475 0.432734L2.63641 0.0324765L2.13763 0.0304097L2.13599
       0.427588C1.39061 0.492237 0.803922 0.899307 0.80086 1.63824C0.797964
       2.33715 1.30142 2.6964 1.87358 2.82501L2.13812 2.8846L2.13337
       4.02996C1.73949 3.97598 1.53419 3.73805 1.51997 3.45473L0.713294
       3.45139C0.717091 4.02101 1.09639 4.62298 2.1152 4.70109L2.11052
       5.08594L2.60931 5.08801Z" fill="#9288E0"/>
</svg>
