<svg width="9" height="10" viewBox="0 0 9 10" fill="none" xmlns="http://www.w3.org/2000/svg">
<path d="M7.38306 3.12274C8.18283 3.59767 8.55659 4.44811 8.55268 5.39131C8.5478 6.57031 7.36489 7.50863 6.18588 7.50374L4.95972 7.49866L4.66973 9.19525C4.64723 9.30329 4.58756 9.40001 4.50111 9.46859C4.41465 9.53717 4.30688 9.57326 4.19656 9.57058L2.92324 9.5653C2.88787 9.56587 2.85283 9.55848 2.82071 9.54367C2.78858 9.52885 2.7602 9.507 2.73767 9.47974C2.71514 9.45247 2.69903 9.42048 2.69054 9.38614C2.68205 9.3518 2.68139 9.31599 2.68861 9.28137L2.78567 8.62152M3.83472 5.84337L5.01372 5.84826C6.19272 5.85314 7.37661 4.67902 7.3815 3.50002C7.38736 2.08522 6.49523 1.13831 5.03326 1.13225L2.43946 1.1215C2.20366 1.12052 1.96688 1.35535 1.96591 1.59115L0.995346 8.18965C0.994369 8.42545 1.22919 8.66223 1.46499 8.6632L2.78547 8.66868L3.36117 6.31302C3.4095 6.03025 3.55176 5.8422 3.83472 5.84337Z" stroke="#ABBBC2" stroke-width="0.707407" stroke-linecap="round" stroke-linejoin="round"/>
</svg>
