<svg width="11" height="10" viewBox="0 0 11 10" fill="none" xmlns="http://www.w3.org/2000/svg">
<path d="M4.55137 6.57629L4.70218 6.57756C6.89241 6.6057 8.12985 7.05321
       8.12484 8.26153C8.11994 9.44425 6.93033 9.89558 4.83562 9.92512L4.53749
       9.92654C2.2529 9.91707 0.959368 9.47742 0.964491 8.24129C0.969619
       7.00355 2.27193 6.56684 4.55137 6.57629ZM4.54844 7.28369C2.65386 7.27584
       1.67454 7.60424 1.67189 8.24423C1.66926 8.88015 2.64349 9.21128 4.54042
       9.21914C6.43514 9.22699 7.41479 8.89854 7.41744 8.2586C7.42008 7.62301
       6.44495 7.29155 4.54844 7.28369ZM8.32353 6.25794C8.59725 6.27769 8.86929
       6.31807 9.13063 6.37715C9.69047 6.49092 10.1062 6.7007 10.2954
       7.10195C10.4351 7.39904 10.4336 7.744 10.2915 8.03987C10.1 8.43855
       9.68697 8.64339 9.12302 8.75695C8.93152 8.79552 8.74502 8.67153 8.70646
       8.48003C8.6679 8.28853 8.79188 8.10203 8.98338 8.06347C9.34627 7.99039
       9.5881 7.87047 9.65382 7.7336C9.70386 7.62945 9.70436 7.50753 9.65536
       7.40332C9.59033 7.26541 9.34825 7.14324 8.9823 7.06879C8.74796 7.01589
       8.51096 6.98071 8.2726 6.96351C8.07776 6.94945 7.93122 6.7801 7.94528
       6.58526C7.95934 6.39042 8.12869 6.24387 8.32353 6.25794ZM4.57474
       0.937594C5.91787 0.943159 6.99194 2.02599 6.98637 3.36883C6.98081
       4.71205 5.89789 5.78603 4.55467 5.78046C3.21152 5.7749 2.13794 4.69204
       2.14351 3.34876C2.14907 2.00586 3.23167 0.932029 4.57474
       0.937594ZM7.60443 1.45458C8.65841 1.45895 9.50945 2.31725 9.50508
       3.37106C9.50072 4.42518 8.64274 5.27608 7.58861 5.27172C7.39327 5.27091
       7.23556 5.11189 7.23637 4.91655C7.23718 4.72121 7.3962 4.56351 7.59154
       4.56432C8.25498 4.56706 8.79493 4.03157 8.79768 3.36813C8.80043 2.70498
       8.26476 2.16473 7.60149 2.16198C7.40615 2.16117 7.24845 2.00216 7.24926
       1.80682C7.25007 1.61147 7.40908 1.45377 7.60443 1.45458ZM4.57181
       1.64499C3.61945 1.64105 2.85485 2.39945 2.85091 3.35169C2.84696 4.30434
       3.60518 5.06911 4.5576 5.07306C5.51013 5.07701 6.27503 4.31843 6.27897
       3.36589C6.28292 2.41377 5.52428 1.64894 4.57181 1.64499Z"
    fill="#65B0F6"/>
</svg>
