<svg width="9" height="10" viewBox="0 0 9 10" fill="none" xmlns="http://www.w3.org/2000/svg">
<path d="M5.95274 0.276625C7.39701 0.28261 8.3147 0.963183 8.30919
       2.29434L8.28169 8.9313C8.28082 9.14008 8.1991 9.33996 8.05451
       9.48699C7.90991 9.63402 7.71428 9.7161 7.50538 9.71523C7.38075 9.71269
       7.25838 9.68078 7.14053 9.61804L4.49988 8.12927L1.85769 9.59925C1.5395
       9.7671 1.15511 9.68747 0.915231 9.4038L0.869244 9.34436L0.825381
       9.2713C0.768214 9.15826 0.737638 9.03306 0.736075 8.90004L0.763231
       2.3464C0.768967 0.962224 1.67225 0.258888 3.13666 0.264956L5.95274
       0.276625ZM5.94991 0.959383L3.13383 0.947714C2.00431 0.943034 1.43314
       1.38777 1.42915 2.34916L1.40198 8.89711C1.40223 8.91795 1.40723 8.93844
       1.40173 8.93052L1.41928 8.95991C1.44954 9.00257 1.5066 9.01668 1.54667
       8.99564L4.18773 7.52655C4.38457 7.41859 4.62121 7.41957 4.81811
       7.5297L7.45426 9.01579C7.47421 9.02639 7.49629 9.03215 7.51349
       9.03254C7.5405 9.03265 7.56645 9.02176 7.58563 9.00226C7.60481 8.98275
       7.61565 8.95624 7.61576 8.92854L7.64326 2.29158C7.64698 1.39564 7.06495
       0.964003 5.94991 0.959383ZM6.13951 3.25638C6.3234 3.25714 6.47184 3.4106
       6.47106 3.59914C6.47035 3.77196 6.34449 3.91427 6.18188 3.93621L6.13669
       3.93914L2.89799 3.92572C2.7141 3.92495 2.56566 3.7715 2.56644
       3.58296C2.56716 3.41013 2.69301 3.26782 2.85563 3.24589L2.90082
       3.24296L6.13951 3.25638Z" fill="#FFB572"/>
</svg>
