<svg width="10" height="10" viewBox="0 0 10 10" fill="none" xmlns="http://www.w3.org/2000/svg">
<path d="M7.17799 0.116653C8.69176 0.122926 9.91375 1.38301 9.90734 2.93108L9.89344 6.28535C9.88702 7.83342 8.65463 9.08334 7.14086 9.07707L3.19077 9.0607C1.677 9.05443 0.45501 7.79434 0.461425 6.24627L0.475324 2.892C0.481738 1.34393 1.71413 0.0940133 3.2279 0.100286L7.17799 0.116653ZM7.17508 0.817695L3.225 0.801327C2.08982 0.796623 1.16564 1.73395 1.16083 2.89484L1.14693 6.24911C1.14212 7.41 2.0585 8.35495 3.19368 8.35966L7.14377 8.37602C8.27894 8.38073 9.20312 7.44341 9.20793 6.28251L9.20827 6.15175L7.701 6.1459C6.83252 6.14176 6.13163 5.41936 6.13478 4.53106C6.13834 3.67258 6.79931 2.97419 7.62821 2.93134L7.71454 2.92927L9.2216 2.93544L9.22183 2.92824C9.2265 1.80149 8.36337 0.878171 7.27466 0.820531L7.17508 0.817695ZM9.2187 3.63624L7.71185 3.63031C7.22143 3.62858 6.82237 4.03303 6.82029 4.53369C6.8186 5.01099 7.17727 5.40348 7.63478 5.4418L7.70412 5.44486L9.21118 5.45096L9.2187 3.63624ZM7.91874 4.15914C8.10804 4.15992 8.26084 4.31749 8.26004 4.51108C8.25931 4.68853 8.12975 4.83465 7.96236 4.85717L7.91584 4.86018L7.77339 4.85959C7.5841 4.8588 7.43129 4.70123 7.43209 4.50765C7.43283 4.33019 7.56238 4.18407 7.72977 4.16155L7.7763 4.15855L7.91874 4.15914ZM5.36105 2.23012C5.55035 2.23091 5.70315 2.38847 5.70235 2.58206C5.70161 2.75952 5.57206 2.90564 5.40467 2.92816L5.35814 2.93116L2.8908 2.92094C2.7015 2.92015 2.54869 2.76259 2.54949 2.569C2.55023 2.39154 2.67978 2.24542 2.84718 2.2229L2.8937 2.2199L5.36105 2.23012Z" fill="#ABBBC2"/>
</svg>
