<svg width="50" height="50" viewBox="0 0 11 10" fill="none"
  xmlns="http://www.w3.org/2000/svg"> <path d="M6.38884 0.744136L6.47449
                                             0.824667L6.81204 1.16503C6.928
                                             1.2814 7.08042 1.35348 7.24281
                                             1.3702L7.31294 1.37395L7.79774
                                             1.37596C8.5541 1.37909 9.17013
                                             1.97312 9.21025 2.71884L9.21232
                                             2.8023L9.21031 3.28664C9.20963
                                             3.4516 9.26585 3.61043 9.36795
                                             3.73695L9.41448 3.78912L9.75206
                                             4.12951C10.2835 4.66293 10.3038
                                             5.51253 9.81261 6.07032L9.74854
                                             6.13848L9.40362 6.48056C9.28761
                                             6.59589 9.21549 6.74843 9.19875
                                             6.91065L9.195 6.98069L9.19299
                                             7.46596C9.18986 8.22228 8.59587
                                             8.83791 7.85011 8.878L7.76665
                                             8.88007L7.28184 8.87806C7.11747
                                             8.87738 6.95844 8.93384 6.83185
                                             9.03622L6.77966 9.08287L6.43972
                                             9.41952C5.90687 9.95159 5.05667
                                             9.97176 4.49865 9.48038L4.42624
                                             9.41203L4.08945 9.07244C3.97279
                                             8.95564 3.82008 8.88329 3.65815
                                             8.86651L3.58827 8.86275L3.10299
                                             8.86074C2.34695 8.85761 1.73106
                                             8.26389 1.69095 7.51831L1.68888
                                             7.43487L1.69089 6.94959C1.69157
                                             6.78549 1.63503 6.6263 1.5327
                                             6.49994L1.48608 6.44788L1.14928
                                             6.1078C0.617362 5.57448 0.597192
                                             4.72426 1.08857 4.1668L1.15266
                                             4.09869L1.49652 3.7572C1.61346
                                             3.64039 1.6857 3.48798 1.70245
                                             3.32565L1.7062 3.25554L1.70821
                                             2.77121L1.71097 2.68778C1.75554
                                             1.9701 2.33289 1.39734 3.05066
                                             1.3587L3.13408 1.35663L3.61936
                                             1.35864C3.7837 1.35932 3.94276
                                             1.30297 4.06912 1.20107L4.1212
                                             1.15465L4.46129 0.816892C4.9947
                                             0.285488 5.84482 0.265518 6.38884
                                             0.744136ZM5.01447 1.26953L4.96017
                                             1.31844L4.61861 1.65764C4.37368
                                             1.89884 4.05044 2.04232 3.70974
                                             2.06336L3.61643 2.06604L3.13115
                                             2.06403C2.75974 2.06249 2.45309
                                             2.34615 2.41879 2.70928L2.41561
                                             2.77414L2.4136 3.25848C2.41218
                                             3.60235 2.28602 3.93249 2.05986
                                             4.19003L1.99572 4.25842L1.65136
                                             4.6004C1.39004 4.86074 1.37318
                                             5.27365 1.60199 5.55475L1.65103
                                             5.60913L1.98883 5.95021C2.23041
                                             6.19439 2.37446 6.51819 2.3956
                                             6.85915L2.3983 6.95252L2.39628
                                             7.4378C2.39474 7.80944 2.67819
                                             8.11588 3.04109 8.15016L3.10592
                                             8.15334L3.5912 8.15535C3.93442
                                             8.15677 4.26485 8.28308 4.52244
                                             8.50927L4.59085 8.57341L4.93055
                                             8.91594C5.19272 9.17881 5.60573
                                             9.19577 5.88659 8.96696L5.94091
                                             8.91792L6.28229 8.57983C6.52698
                                             8.33831 6.85036 8.19445 7.19138
                                             8.17335L7.28477 8.17066L7.76958
                                             8.17267C8.14152 8.17421 8.44812
                                             7.8909 8.48241 7.52788L8.48559
                                             7.46303L8.4876 6.97775C8.48903
                                             6.63403 8.61528 6.30301 8.84114
                                             6.04661L8.90519 5.97858L9.2497
                                             5.63691C9.51102 5.37627 9.5278
                                             4.96357 9.29931 4.68257L9.25034
                                             4.62821L8.91131 4.28636C8.66997
                                             4.04127 8.52661 3.71837 8.50559
                                             3.37717L8.50291 3.28371L8.50492
                                             2.79937C8.50646 2.42756 8.22285
                                             2.12085 7.85968 2.08654L7.79481
                                             2.08336L7.31001 2.08135C6.96613
                                             2.07992 6.63556 1.95387 6.37857
                                             1.72786L6.31035 1.66376L5.98727
                                             1.33712L5.96854 1.31958C5.70823
                                             1.05828 5.29523 1.04134 5.01447
                                             1.26953ZM6.90687 6.08769C6.93975
                                             6.12084 6.96789 6.15869 6.98658
                                             6.20121C7.00055 6.24371 7.00979
                                             6.29091 7.00959 6.33807C7.00939
                                             6.3857 6.99979 6.42764 6.98546
                                             6.47002C6.96642 6.51239 6.93795
                                             6.55471 6.9048 6.58759C6.8385
                                             6.65334 6.74874 6.6907 6.65442
                                             6.69031C6.5601 6.68992 6.47066
                                             6.65182 6.40491 6.58552C6.37203
                                             6.55237 6.34863 6.50983 6.32994
                                             6.46731C6.31125 6.42478 6.30199
                                             6.38277 6.30219 6.33514C6.30238
                                             6.28798 6.31201 6.24086 6.33105
                                             6.19849C6.35009 6.15613 6.37383
                                             6.1185 6.40698 6.08562C6.53957
                                             5.95412 6.77537 5.9551 6.90687
                                             6.08769ZM6.91864 3.66215C7.04369
                                             3.78824 7.05429 3.98479 6.95097
                                             4.12283L6.91656 4.16236L4.48249
                                             6.57634C4.34379 6.7139 4.11984
                                             6.71297 3.98228 6.57427C3.85723
                                             6.44818 3.84663 6.25163 3.94995
                                             6.11359L3.98436 6.07406L6.41843
                                             3.66008C6.55713 3.52252 6.78108
                                             3.52345 6.91864 3.66215ZM4.49284
                                             3.65381C4.5586 3.71964 4.59595
                                             3.80987 4.59556 3.90419C4.59536
                                             3.95135 4.59047 3.9933 4.57143
                                             4.03614C4.55239 4.0785 4.52394
                                             4.11612 4.49077 4.15371C4.45762
                                             4.18658 4.4198 4.20953 4.37728
                                             4.22822C4.33475 4.24691 4.28755
                                             4.25662 4.24039 4.25642C4.19323
                                             4.25623 4.15083 4.24615 4.10846
                                             4.22711C4.0661 4.20807 4.02375
                                             4.18478 3.99087 4.15164C3.95802
                                             4.11377 3.9346 4.07594 3.91591
                                             4.03342C3.89722 3.99043 3.88796
                                             3.94842 3.88816 3.90126C3.88836
                                             3.85363 3.89798 3.80698 3.91702
                                             3.76461C3.93606 3.72224 3.95982
                                             3.6799 3.99295 3.65174C4.13026
                                             3.51979 4.36134 3.52074 4.49284
                                             3.65381Z" fill="#EA7C69"/> </svg>
