<svg width="50" height="50" viewBox="0 0 13 12" fill="none" xmlns="http://www.w3.org/2000/svg">
<path d="M5.59746 1.66648C6.19837 1.19311 7.0379 1.17773 7.65341 1.6184L7.7291 1.67531L10.5912 3.98437C10.9061 4.23044 11.0984 4.59485 11.1298 4.99066L11.1341 5.08547L11.1183 8.90968C11.1142 9.89533 10.3323 10.6938 9.35631 10.7417L8.41782 10.7378C7.96937 10.7269 7.60816 10.3765 7.57696 9.93773L7.57252 9.87122L7.57811 8.52291C7.57871 8.37625 7.47028 8.25365 7.32466 8.22899L7.28223 8.2241L6.02259 8.21888C5.87213 8.22298 5.74906 8.33094 5.72961 8.47234L5.72472 8.51523L5.71915 9.8593C5.71903 9.88712 5.71371 9.92011 5.70937 9.94367L5.70461 9.95356L5.69929 9.98608C5.6415 10.3872 5.31011 10.6919 4.8997 10.7189L4.83838 10.7229L3.99421 10.7194C3.00857 10.7154 2.20533 9.93906 2.15748 8.96687L2.17372 5.04834C2.17963 4.64703 2.35613 4.27519 2.6496 4.01702L5.59746 1.66648ZM7.31668 2.18765C6.95945 1.89849 6.45018 1.8827 6.07187 2.13062L6.00044 2.1822L3.12353 4.48163C2.95843 4.6031 2.85864 4.78661 2.83426 4.97987L2.82876 5.0553L2.81293 8.87527C2.81033 9.5025 3.29866 10.0186 3.92149 10.0589L4.84111 10.0627C4.94486 10.0631 5.03476 9.99323 5.04885 9.89425L5.0591 9.8094L5.06392 9.78537L5.06919 8.51252C5.07128 8.0079 5.45969 7.59921 5.95503 7.56307L7.28495 7.56858C7.78909 7.57067 8.19778 7.95955 8.23392 8.45489L8.22804 9.87394C8.22763 9.97297 8.29802 10.0586 8.39226 10.0774L9.26897 10.081C9.90092 10.0837 10.417 9.60051 10.4573 8.9824L10.4628 8.90697L10.4786 5.087C10.4742 4.88466 10.3906 4.6952 10.245 4.55359L10.1839 4.50098L7.31668 2.18765Z" fill="white"/>
</svg>
