<svg width="50" height="50" viewBox="0 0 11 11" fill="none" xmlns="http://www.w3.org/2000/svg">
<path d="M5.11303 0.774405C6.23508 0.779055 7.14723 1.6666 7.19404 2.77616L7.19591 2.87462L7.19409 3.31462C7.19328 3.50997 7.03427 3.66767 6.83892 3.66686C6.65986 3.66612 6.51242 3.53244 6.48972 3.3597L6.48669 3.31169L6.48851 2.87169C6.49157 2.13462 5.91776 1.52961 5.19141 1.48449L5.1101 1.48181L2.81105 1.47228C2.07438 1.46923 1.46943 2.04309 1.42432 2.76939L1.42163 2.85069L1.39989 8.09961C1.39683 8.83662 1.97058 9.44169 2.69656 9.4868L2.77783 9.48949L5.0816 9.49904C5.81605 9.50208 6.4191 8.93035 6.46406 8.20679L6.46674 8.12579L6.46858 7.68107C6.46939 7.48573 6.62841 7.32803 6.82375 7.32884C7.00281 7.32958 7.15025 7.46326 7.17296 7.636L7.17599 7.684L7.17414 8.12872C7.16951 9.247 6.28534 10.1563 5.17976 10.2045L5.07866 10.2064L2.7749 10.1969C1.65322 10.1922 0.741167 9.30462 0.694353 8.19513L0.692484 8.09668L0.714234 2.84776C0.718883 1.7258 1.60634 0.813573 2.71555 0.766748L2.81398 0.764879L5.11303 0.774405ZM8.87085 3.84641L8.91045 3.88073L10.2856 5.26117C10.298 5.27356 10.3088 5.28616 10.3188 5.29948L10.2856 5.26117C10.2999 5.27557 10.3128 5.2909 10.3242 5.30696C10.3322 5.31819 10.3396 5.33006 10.3462 5.34237C10.3474 5.34476 10.3487 5.34711 10.3499 5.34947C10.3558 5.3608 10.3611 5.37255 10.3657 5.38462C10.3676 5.3899 10.3695 5.39525 10.3712 5.40062C10.3746 5.41055 10.3775 5.42077 10.3799 5.43117C10.381 5.43672 10.3821 5.44223 10.3831 5.44776C10.385 5.45741 10.3864 5.46736 10.3873 5.47743C10.3878 5.48444 10.3883 5.49138 10.3885 5.49832C10.3888 5.50298 10.3889 5.50763 10.3889 5.51231L10.3884 5.52566C10.3881 5.53292 10.3876 5.54017 10.3868 5.5474L10.3889 5.51231C10.3888 5.5344 10.3867 5.55601 10.3827 5.57696C10.3815 5.58219 10.3803 5.58772 10.379 5.59322C10.3766 5.60414 10.3735 5.61472 10.37 5.62508C10.3682 5.6299 10.3664 5.63477 10.3645 5.63961C10.3601 5.65133 10.355 5.66266 10.3492 5.67366C10.3478 5.67615 10.3463 5.67893 10.3448 5.68171C10.3284 5.7115 10.308 5.73841 10.2842 5.76198L10.2836 5.76244L8.89702 7.13191C8.75804 7.26918 8.53409 7.26779 8.39682 7.12881C8.27203 7.00246 8.26183 6.80589 8.36543 6.66807L8.39992 6.62861L9.17609 5.86056L4.35515 5.84101C4.1598 5.8402 4.0021 5.68119 4.00291 5.48585C4.00366 5.30678 4.13733 5.15935 4.31007 5.13664L4.35808 5.13361L9.17996 5.15317L8.40928 4.37998C8.28395 4.25417 8.27291 4.05765 8.37592 3.91937L8.41024 3.87977C8.53605 3.75444 8.73258 3.7434 8.87085 3.84641Z" fill="#EA7C69"/>
</svg>
