<svg width="50" height="50" viewBox="0 0 10 10" fill="none" xmlns="http://www.w3.org/2000/svg">
<path d="M7.10783 0.974902C7.82177 0.985902 8.50008 1.29096 8.98476 1.81905C9.46945 2.34714 9.71821 3.05217 9.67383 3.74868L9.66102 6.69003C9.70016 7.40815 9.44557 8.11109 8.95652 8.63515C8.46747 9.1592 7.78667 9.45863 7.06867 9.4637L2.79566 9.44599C1.3009 9.4398 0.227521 8.22732 0.233965 6.67223L0.246241 3.70961C0.252685 2.15453 1.33608 0.950986 2.83083 0.95718L7.10783 0.974902ZM7.09686 1.69565L2.82784 1.67796C1.74628 1.67348 0.966727 2.53951 0.961867 3.71258L0.949591 6.6752C0.94473 7.84827 1.71708 8.72073 2.79864 8.72521L7.06766 8.7429C7.58594 8.73922 8.08011 8.52188 8.43509 8.14149C8.79008 7.76109 8.97488 7.25085 8.94593 6.70833L8.95891 3.72445C8.99165 3.20345 8.81108 2.6917 8.45926 2.30838C8.10745 1.92505 7.61509 1.70362 7.09686 1.69565ZM7.80362 3.63689C7.9153 3.77862 7.90404 3.97887 7.78477 4.10707L7.74577 4.14324L5.80244 5.69672C5.3305 6.06409 4.68043 6.07986 4.19133 5.74377L4.11549 5.68778L2.17213 4.12108C2.01785 3.99671 1.99289 3.7699 2.11638 3.6145C2.22864 3.47322 2.42495 3.43959 2.57562 3.52809L2.61933 3.55832L4.56023 5.12305C4.77786 5.29536 5.07712 5.30979 5.30565 5.16797L5.36122 5.12926L7.30091 3.57865C7.4557 3.45491 7.68077 3.48098 7.80362 3.63689Z" fill="#EA7C69"/>
</svg>
