<svg width="50" height="50" viewBox="0 0 9 11" fill="none" xmlns="http://www.w3.org/2000/svg">
<path d="M6.06748 9.06023C6.20687 9.17471 6.22818 9.38192 6.11507 9.52304C6.03145 9.62736 5.93494 9.72068 5.83275 9.79705C5.48849 10.0649 5.05171 10.1852 4.61866 10.1318C4.18523 10.0783 3.79058 9.85518 3.52205 9.51107C3.41078 9.36848 3.43477 9.16158 3.57564 9.04893C3.71652 8.93628 3.92092 8.96055 4.03219 9.10313C4.19413 9.31066 4.43351 9.44601 4.69734 9.47854C4.96155 9.51112 5.22776 9.43781 5.44153 9.27158C5.50455 9.22443 5.56125 9.16961 5.61027 9.10845C5.72338 8.96734 5.92808 8.94574 6.06748 9.06023ZM1.62899 3.99993L1.63596 3.71896C1.64061 3.59879 1.6475 3.48724 1.65737 3.3781C1.80504 1.8524 3.26664 0.705575 4.85553 0.712159L4.88916 0.712298C6.4772 0.718879 7.92967 1.87697 8.06949 3.40674C8.07748 3.50398 8.08072 3.59035 8.0813 3.71178L8.08019 4.08329C8.0804 4.11713 8.08085 4.1469 8.0816 4.17465L8.08558 4.26722L8.10623 4.35555C8.17156 4.60159 8.28723 4.83185 8.44611 5.03198L8.51684 5.11587L8.54578 5.15334C8.73615 5.4404 8.84419 5.77396 8.85834 6.13278L8.85709 6.32298C8.84197 6.74781 8.68427 7.15751 8.39703 7.49828C8.01681 7.89846 7.50279 8.14593 6.95739 8.19385C5.54887 8.34089 4.12841 8.33501 2.72508 8.17671C2.17635 8.12163 1.66592 7.87066 1.27254 7.45185C0.982649 7.09543 0.829626 6.64755 0.841162 6.19563L0.842026 6.08327C0.860283 5.73971 0.97041 5.40736 1.16087 5.12063L1.19271 5.08001C1.41476 4.83859 1.56711 4.54264 1.63401 4.22317L1.6268 4.25186L1.62899 3.99993ZM4.88644 1.37035L4.8528 1.37021C3.58029 1.36493 2.41707 2.27764 2.30455 3.44012C2.29878 3.504 2.29411 3.5699 2.29038 3.63927L2.2819 3.85919L2.27703 4.29271L2.26996 4.35956C2.17856 4.79605 1.97073 5.19979 1.66848 5.5284L1.69183 5.50156L1.64999 5.57016C1.57156 5.7101 1.52071 5.86222 1.50025 6.01246L1.49164 6.10226L1.49113 6.20539C1.48352 6.50569 1.58378 6.79916 1.75871 7.01561C2.02876 7.30225 2.39493 7.48229 2.79321 7.52229C4.15439 7.6758 5.52836 7.6815 6.89598 7.53877C7.29026 7.5041 7.65765 7.32722 7.91525 7.05697C8.11031 6.82498 8.21411 6.53142 8.20789 6.22198L8.20859 6.1449C8.19956 5.92247 8.1296 5.70651 8.00602 5.52015L8.01316 5.53214L7.94846 5.45561C7.72541 5.17797 7.56387 4.85633 7.47462 4.5119L7.44455 4.38171L7.43866 4.33798C7.43433 4.27412 7.4319 4.21737 7.43076 4.14913L7.43125 3.7225C7.43082 3.614 7.42819 3.54096 7.42191 3.46438C7.31528 2.29788 6.15858 1.37562 4.88644 1.37035Z" fill="#EA7C69"/>
</svg>
