<svg width="10" height="11" viewBox="0 0 10 11" fill="none" xmlns="http://www.w3.org/2000/svg">
<path fill-rule="evenodd" clip-rule="evenodd" d="M2.00848 4.93327C2.01386 3.63283 3.07581 2.57965 4.37625 2.58504C5.67669 2.59043 6.72987 3.65237 6.72448 4.95281C6.71909 6.25325 5.65715 7.30643 4.35671 7.30104C3.05627 7.29565 2.00309 6.23371 2.00848 4.93327M8.16786 8.218L6.83916 6.87785C7.25519 6.34744 7.50751 5.68155 7.51052 4.95607C7.5177 3.22254 6.11306 1.80622 4.37954 1.79904C2.64601 1.79186 1.22969 3.19649 1.22251 4.93002C1.21532 6.66354 2.61996 8.07986 4.35348 8.08705C5.07896 8.09005 5.74692 7.84326 6.28076 7.43164L7.60986 8.7714C7.68617 8.84836 7.78662 8.88729 7.88723 8.8877C7.98784 8.88812 8.08861 8.85002 8.16556 8.77371C8.31986 8.62068 8.32089 8.3723 8.16786 8.218" fill="currentColor"/>
<mask id="mask0_63_12" style="mask-type:luminance" maskUnits="userSpaceOnUse" x="1" y="1" width="8" height="8">
<path fill-rule="evenodd" clip-rule="evenodd" d="M2.00848 4.93327C2.01386 3.63283 3.07581 2.57965 4.37625 2.58504C5.67669 2.59043 6.72987 3.65237 6.72448 4.95281C6.71909 6.25325 5.65715 7.30643 4.35671 7.30104C3.05627 7.29565 2.00309 6.23371 2.00848 4.93327M8.16786 8.218L6.83916 6.87785C7.25519 6.34744 7.50751 5.68155 7.51052 4.95607C7.5177 3.22254 6.11306 1.80622 4.37954 1.79904C2.64601 1.79186 1.22969 3.19649 1.22251 4.93002C1.21532 6.66354 2.61996 8.07986 4.35348 8.08705C5.07896 8.09005 5.74692 7.84326 6.28076 7.43164L7.60986 8.7714C7.68617 8.84836 7.78662 8.88729 7.88723 8.8877C7.98784 8.88812 8.08861 8.85002 8.16556 8.77371C8.31986 8.62068 8.32089 8.3723 8.16786 8.218" fill="currentColor"/>
</mask>
<g mask="url(#mask0_63_12)">
<rect x="0.0614014" y="0.602112" width="9.43209" height="9.43209" transform="rotate(0.237411 0.0614014 0.602112)" fill="white"/>
</g>
</svg>
