<svg width="50" height="50" viewBox="0 0 10 11" fill="none" xmlns="http://www.w3.org/2000/svg">
<path d="M4.96339 0.816704C5.29776 0.817955 5.6174 0.951754 5.8495 1.18762C6.08159 1.42349 6.20638 1.74134 6.195 2.03745L6.19872 2.10712C6.20657 2.17575 6.22909 2.24204 6.2658 2.30321C6.33731 2.42382 6.45485 2.51163 6.5925 2.54725C6.73015 2.58287 6.8766 2.56339 7.01554 2.48451L7.09296 2.44574C7.67412 2.18097 8.36893 2.39617 8.68841 2.94461L8.97554 3.43743C8.98311 3.45042 8.98977 3.46384 8.99551 3.4776L9.02212 3.53038C9.27852 4.07227 9.09183 4.7148 8.59912 5.03959L8.47747 5.11379C8.41386 5.15686 8.36074 5.21324 8.32069 5.28109C8.24836 5.40158 8.22805 5.54535 8.26425 5.68058C8.30046 5.81581 8.39019 5.93132 8.52671 6.0094L8.60523 6.05915C8.8424 6.22313 9.01321 6.46408 9.08702 6.73974C9.17028 7.05076 9.12357 7.38144 8.95492 7.66234L8.64174 8.16877L8.59455 8.24019C8.22691 8.75362 7.51661 8.90801 6.97632 8.5995L6.91227 8.56683C6.84544 8.53722 6.77326 8.5208 6.7075 8.51872C6.56443 8.51745 6.42679 8.57227 6.32521 8.67096C6.22363 8.76966 6.16655 8.90405 6.16627 9.0606L6.16211 9.14152C6.10714 9.76801 5.56964 10.2514 4.92445 10.2487L4.34186 10.2463C3.65857 10.2435 3.10691 9.69849 3.11028 9.05055L3.10657 8.98088C3.09871 8.91226 3.07619 8.84597 3.03763 8.78162C2.9677 8.66071 2.85137 8.57217 2.7145 8.53568C2.57763 8.49918 2.43157 8.51777 2.28993 8.59722L2.2058 8.63795C1.93979 8.75385 1.6402 8.77422 1.35989 8.69491C1.04362 8.60544 0.776773 8.39618 0.621692 8.11921L0.323232 7.60948L0.283541 7.53398C0.0121722 6.96679 0.229542 6.28719 0.775347 5.98113L0.825134 5.95087C0.971013 5.85282 1.05891 5.69055 1.05963 5.51662C1.06042 5.32748 0.958153 5.15229 0.778422 5.04927L0.705516 5.00302C0.181411 4.64275 0.0237048 3.94681 0.351592 3.39472L0.659838 2.90303C1.00278 2.32536 1.7583 2.12872 2.33739 2.45726L2.40009 2.49034C2.46403 2.51941 2.53354 2.53499 2.60054 2.53596C2.89595 2.53722 3.13759 2.3058 3.14329 2.0079L3.14769 1.91643C3.17305 1.63326 3.29961 1.36758 3.50554 1.16653C3.73788 0.939692 4.05291 0.812932 4.38094 0.814291L4.96339 0.816704ZM4.9607 1.49946L4.37811 1.49705C4.23548 1.49645 4.09851 1.55157 3.99749 1.6502C3.90795 1.73761 3.85292 1.85313 3.8429 1.96119L3.83597 2.10495C3.78458 2.73168 3.24789 3.22148 2.59405 3.21868C2.42552 3.21627 2.25951 3.17907 2.09039 3.10165L1.99986 3.0544C1.74198 2.90822 1.41202 2.9941 1.25799 3.25336L0.949738 3.74506C0.808442 3.98305 0.877355 4.28716 1.09399 4.43642L1.21663 4.51321C1.55432 4.73893 1.75818 5.11532 1.7565 5.5195C1.75485 5.91779 1.55363 6.28929 1.20748 6.52158L1.13381 6.56654C0.891386 6.70262 0.796823 6.99826 0.908268 7.23186L0.934606 7.28223L1.22928 7.78501C1.29846 7.90849 1.415 7.99988 1.55312 8.03896C1.67554 8.07359 1.80639 8.0647 1.90863 8.02052L1.96 7.99614C2.24371 7.8355 2.58117 7.79257 2.89738 7.87688C3.21359 7.96118 3.48235 8.16575 3.64113 8.44037C3.72657 8.58273 3.78035 8.74104 3.80067 8.92283L3.80948 9.08962C3.83772 9.35498 4.06617 9.5624 4.34469 9.56355L4.92728 9.56596C5.20897 9.56713 5.44384 9.35591 5.4669 9.09606L5.46978 9.04463C5.46953 8.72224 5.60083 8.41314 5.83445 8.18614C6.06807 7.95914 6.38464 7.83307 6.72133 7.83614C6.88651 7.84115 7.04895 7.8781 7.21484 7.95206L7.36354 8.02725C7.59701 8.1288 7.87473 8.05655 8.01616 7.85949L8.05056 7.80728L8.35651 7.31237C8.42884 7.19188 8.44915 7.0481 8.41294 6.91287C8.38086 6.79302 8.30658 6.68825 8.21625 6.62539L8.08818 6.54532C7.84332 6.38172 7.66588 6.13645 7.59018 5.85371C7.50691 5.5427 7.55363 5.21202 7.71868 4.93707C7.80905 4.78395 7.93291 4.6525 8.09414 4.54375L8.17013 4.49729C8.41219 4.3599 8.50667 4.06428 8.39605 3.82981L8.36296 3.76669L8.35704 3.75345L8.08319 3.28298C7.95367 3.06063 7.68263 2.96367 7.45199 3.03844L7.39957 3.05876L7.35082 3.08284C7.06803 3.2445 6.73121 3.2893 6.41463 3.20737C6.09804 3.12543 5.8277 2.92349 5.66415 2.64764C5.57871 2.50527 5.52493 2.34697 5.50461 2.16517L5.49892 2.04628C5.5037 1.90328 5.4492 1.76446 5.34784 1.66145C5.24648 1.55844 5.10688 1.50007 4.9607 1.49946ZM4.66121 3.99024C5.53003 3.99384 6.23149 4.68681 6.22797 5.53803C6.22444 6.38925 5.51726 7.07639 4.64843 7.07279C3.77961 7.06919 3.07815 6.37622 3.08167 5.52499C3.0852 4.67377 3.79238 3.98664 4.66121 3.99024ZM4.65838 4.67299C4.17443 4.67099 3.78051 5.05373 3.77855 5.52788C3.77658 6.00203 4.16731 6.38803 4.65126 6.39003C5.13522 6.39204 5.52913 6.00929 5.53109 5.53514C5.53306 5.061 5.14233 4.675 4.65838 4.67299Z" fill="#EA7C69"/>
</svg>
