<svg width="50" height="50" viewBox="0 0 10 10" fill="none" xmlns="http://www.w3.org/2000/svg">
<path d="M4.55299 2.74785C4.59401 2.8302 4.6185 2.91947 4.62526 3.01245L4.79777 5.60159C4.80008 5.63706 4.81674 5.67018 4.84408 5.6936C4.86458 5.71117 4.88981 5.72221 4.91806 5.7255L4.94725 5.72618L7.57669 5.57871C7.79021 5.56704 7.9992 5.6422 8.15416 5.78639C8.30913 5.93058 8.3963 6.13099 8.3942 6.36241C8.27023 8.06558 7.01295 9.48463 5.30705 9.84674C3.60115 10.2089 1.85524 9.42729 1.02277 7.93235C0.800105 7.54693 0.650694 7.12574 0.58267 6.69965L0.560992 6.53969C0.542094 6.4199 0.532167 6.29897 0.531143 6.18286L0.533085 6.06857C0.545306 4.28985 1.80055 2.75693 3.55971 2.34935L3.68042 2.32331L3.74535 2.31285C4.08537 2.2678 4.41899 2.44732 4.55299 2.74785ZM3.85339 2.98903L3.81363 2.99338L3.70578 3.01728C2.30447 3.34888 1.29541 4.54991 1.23376 5.96953L1.23085 6.0851C1.22713 6.17302 1.22998 6.26104 1.2402 6.35474L1.2529 6.45054C1.29809 6.8536 1.42655 7.24348 1.63314 7.60117C2.31997 8.83449 3.75588 9.47728 5.15889 9.17946C6.56189 8.88165 7.59593 7.71456 7.69699 6.33605C7.69708 6.31528 7.68846 6.29539 7.67308 6.28107C7.66282 6.27153 7.65018 6.26503 7.63677 6.26209L7.61626 6.26042L4.99118 6.40763C4.76962 6.42245 4.55115 6.3503 4.3841 6.20713C4.21705 6.06397 4.11521 5.86161 4.10119 5.64609L3.92883 3.05915C3.92852 3.05487 3.92737 3.05068 3.91941 3.03403C3.90758 3.00756 3.8817 2.99064 3.85339 2.98903ZM5.94184 0.508962C7.96262 0.574504 9.65173 2.03375 9.9679 3.98715L9.97219 4.04181L9.97073 4.137C9.9588 4.27733 9.9017 4.41061 9.80726 4.51749C9.68865 4.6517 9.52021 4.73411 9.33674 4.74661L6.20189 4.93797C5.80007 4.95901 5.45609 4.65901 5.4316 4.26672L5.23485 1.18896L5.23751 1.12003L5.24824 1.0424C5.27676 0.904782 5.34905 0.779251 5.45512 0.683977C5.58833 0.564333 5.76472 0.501418 5.94184 0.508962ZM5.93348 1.1918L6.12834 4.22464C6.12949 4.24306 6.14562 4.25713 6.16137 4.25632L9.27327 4.06572L9.25816 3.98076C8.95624 2.44522 7.63113 1.30042 6.03602 1.19709L5.93348 1.1918Z" fill="#EA7C69"/>
</svg>
