<svg width="50" height="50" viewBox="0 0 17 16" fill="none" xmlns="http://www.w3.org/2000/svg">
<path d="M14.3701 0.375893L3.36606 0.330297C2.06601 0.32491 1.00367 1.37848 0.998286 2.67853L0.989066 4.9037C0.985636 5.73136 1.28277 6.4848 1.76612 7.06531L1.73543 14.4718C1.73457 14.6803 1.81655 14.8805 1.96334 15.0285C2.11014 15.1766 2.30972 15.2602 2.51818 15.2611L8.80619 15.2871C9.01465 15.288 9.21491 15.206 9.36293 15.0592C9.51094 14.9124 9.59458 14.7128 9.59544 14.5044L9.61173 10.5744L12.7557 10.5874L12.7394 14.5174C12.7386 14.7259 12.8206 14.9261 12.9674 15.0741C13.1142 15.2222 13.3137 15.3058 13.5222 15.3067L15.0942 15.3132C15.3027 15.314 15.5029 15.2321 15.6509 15.0853C15.799 14.9385 15.8826 14.7389 15.8835 14.5304L15.9141 7.12315C16.4023 6.54746 16.7057 5.7965 16.7091 4.96805L16.7183 2.74367C16.7237 1.44362 15.6701 0.38128 14.3701 0.375893ZM15.1463 2.73715L15.1371 4.96232C15.1334 5.85836 14.4629 6.61959 13.6437 6.65943L13.558 6.66065C12.6911 6.65705 11.9889 5.94909 11.9925 5.08213L12.0056 1.93813L14.3636 1.9479C14.7974 1.94969 15.1481 2.30407 15.1463 2.73715ZM7.27652 5.06259L7.28955 1.91858L10.4336 1.93161L10.4205 5.07562C10.4169 5.94258 9.70897 6.6447 8.84201 6.6411C7.97505 6.63751 7.27293 5.92955 7.27652 5.06259ZM2.57029 2.68504C2.57208 2.25196 2.92567 1.9005 3.35955 1.9023L5.71755 1.91207L5.70452 5.05607C5.70093 5.92303 4.99297 6.62516 4.12601 6.62156L4.04034 6.61885C3.2215 6.57301 2.55735 5.80625 2.56107 4.91021L2.57029 2.68504ZM7.25047 11.3506L4.10646 11.3376L4.11624 8.97957L7.26024 8.99259L7.25047 11.3506Z" fill="currentColor"/>
<defs>
<linearGradient id="paint0_linear_19_1196" x1="8.86807" y1="0.353095" x2="8.80619" y2="15.2871" gradientUnits="userSpaceOnUse">
<stop stop-color="#EA9769"/>
<stop offset="1" stop-color="#EA6969"/>
</linearGradient>
</defs>
</svg>
