<svg width="16" height="16" viewBox="0 0 8 8" fill="currentColor"
  xmlns="http://www.w3.org/2000/svg"> <path d="M6.76413 2.73565L6.80322
                                             2.73634C6.94822 2.74894 7.0589
                                             2.86984 7.066 3.01485L7.06193
                                             3.09567L6.93206 4.60869L6.79629
                                             6.0852C6.76763 6.37995 6.74205
                                             6.62856 6.72004 6.82425C6.64356
                                             7.50624 6.19891 7.92632 5.5312
                                             7.93604C4.49076 7.95094 3.49073
                                             7.9466 2.51969 7.92158C1.8714
                                             7.90528 1.43681 7.47699 1.36724
                                             6.80484L1.31928 6.30963L1.23587
                                             5.34911L1.15072 4.29513L1.0536
                                             3.02995C1.04156 2.86763 1.16011
                                             2.726 1.3184 2.71361C1.4635
                                             2.70225 1.59162 2.80344 1.62125
                                             2.94541L1.63253 3.06138L1.72372
                                             4.24745L1.82357 5.47686C1.86844
                                             6.00908 1.90748 6.43981 1.93889
                                             6.7424C1.97854 7.12544 2.17933
                                             7.32332 2.53408 7.33223C3.49752
                                             7.35706 4.4901 7.36137 5.52322
                                             7.34657C5.89959 7.34109 6.10521
                                             7.14683 6.14894 6.75692L6.20077
                                             6.26478C6.21598 6.11312 6.23225
                                             5.94567 6.24948 5.76379L6.35953
                                             4.55555L6.49249 3.00518C6.5048
                                             2.85648 6.62273 2.74295 6.76413
                                             2.73565ZM0.81395 2.03123C0.655203
                                             2.03058 0.52706 1.89807 0.527734
                                             1.73528C0.528353 1.58605 0.636999
                                             1.46318 0.777378 1.44424L0.816392
                                             1.44171L2.06862 1.4469C2.21743
                                             1.44752 2.34811 1.34986 2.39529
                                             1.20858L2.40688 1.16494L2.50625
                                             0.669064C2.59331 0.340729 2.87256
                                             0.107861 3.19878 0.0828177L3.26046
                                             0.080585L4.88275 0.0873071C5.21427
                                             0.0886809 5.50612 0.30458 5.61744
                                             0.636783L5.63617 0.70041L5.72729
                                             1.17858C5.7559 1.3284 5.87484
                                             1.44069 6.01922 1.46038L6.06322
                                             1.46345L7.31553 1.46864C7.47428
                                             1.4693 7.60242 1.6018 7.60174
                                             1.76459C7.60113 1.91382 7.49248
                                             2.0367 7.3521 2.05563L7.31309
                                             2.05816L0.81395 2.03123ZM4.88031
                                             0.67683L3.25801 0.670107C3.17737
                                             0.669773 3.10548 0.717882 3.07545
                                             0.778595L3.06524 0.805283L2.9701
                                             1.28292C2.95847 1.34122 2.94172
                                             1.39733 2.92041 1.45082L5.21148
                                             1.46039C5.19845 1.42691 5.18721
                                             1.39242 5.17789 1.35703L5.16311
                                             1.29189L5.07607 0.831992C5.05561
                                             0.752172 4.99164 0.693533 4.91422
                                             0.679865L4.88031 0.67683Z"
    fill="currentColor" /> </svg>
